<svg width="520" height="482" xmlns="http://www.w3.org/2000/svg">

 <g>
  <title>background</title>
  <rect fill="none" id="canvas_background" height="484" width="522" y="-1" x="-1"/>
 </g>
 <g>
  <title>Layer 1</title>
  <path fill="#0038b8" id="svg_2" d="m217.4,419.4c0,21.9 17.7,39.6 39.6,39.6s39.6,-17.7 39.6,-39.6l0,-2.5l-79.2,0l0,2.5z" class="st1"/>
  <path fill="#0038b8" id="svg_3" d="m366.4,164.4c0,-30.2 -12.3,-57.6 -32,-77.4c-19.8,-19.8 -47.2,-32 -77.4,-32c-60.4,0 -109.4,49 -109.4,109.4l0,9.3l218.8,0l0,-9.3zm-146.4,-10.9c-11.2,0 -20.2,-9 -20.2,-20.2c0,-11.2 9,-20.2 20.2,-20.2s20.2,9 20.2,20.2c0,11.2 -9.1,20.2 -20.2,20.2zm74,0c-11.2,0 -20.2,-9 -20.2,-20.2c0,-11.2 9,-20.2 20.2,-20.2s20.2,9 20.2,20.2c0.1,11.2 -9,20.2 -20.2,20.2z" class="st1"/>
  <path fill="#0038b8" id="svg_5" d="m108,240.1l0,19.4l0,0c-22.2,0 -40.3,-18.1 -40.3,-40.3l0,-43c12,-2.9 21.2,-13.2 22.5,-25.7l15.4,-15.4c1.3,-1.3 2.1,-3.1 2.1,-4.9l0,-26.7c0,-3.9 -3.1,-7 -7,-7s-7,3.1 -7,7l0,23.8l-6.6,6.6c-4.9,-9.5 -14.9,-16 -26.3,-16c-11.4,0 -21.4,6.5 -26.3,16l-6.6,-6.6l0,-23.8c0,-3.9 -3.1,-7 -7,-7s-7,3.1 -7,7l0,26.7c0,1.9 0.7,3.6 2,4.9l15.4,15.4c1.3,12.6 10.5,22.8 22.5,25.7l0,43c0,29.9 24.4,54.3 54.3,54.3l0,0l0,24.2c0,8.7 7,15.8 15.8,15.8l9.8,0l0,-89.1l-9.8,0c-8.9,0 -15.9,7 -15.9,15.7z" class="st1"/>
  <path fill="#0038b8" id="svg_6" d="m493.3,96.5c-3.9,0 -7,3.1 -7,7l0,23.8l-6.6,6.6c-4.9,-9.5 -14.9,-16 -26.3,-16c-11.4,0 -21.4,6.5 -26.3,16l-6.6,-6.6l0,-23.8c0,-3.9 -3.1,-7 -7,-7s-7,3.1 -7,7l0,26.7c0,1.9 0.7,3.6 2.1,4.9l15.4,15.4c1.3,12.6 10.5,22.8 22.5,25.7l0,43c0,22.2 -18.1,40.3 -40.3,40.3l0,0l0,-19.4c0,-8.7 -7,-15.8 -15.8,-15.8l-9.8,0l0,89.1l9.8,0c8.7,0 15.8,-7.1 15.8,-15.8l0,-24.2l0,0c29.9,0 54.3,-24.4 54.3,-54.3l0,-43c12,-2.9 21.2,-13.2 22.5,-25.7l15.4,-15.4c1.3,-1.3 2,-3.1 2,-4.9l0,-26.7c-0.1,-3.8 -3.3,-6.9 -7.1,-6.9z" class="st1"/>
  <line stroke="null" stroke-linecap="null" stroke-linejoin="null" id="svg_8" y2="376.515153" x2="364.959599" y1="200.676763" x1="151.626256" stroke-opacity="null" stroke-width="NaN" fill="none"/>
  <rect stroke="null" id="svg_9" height="124.121205" width="215.919182" y="189.040402" x="149.040405" stroke-opacity="null" stroke-width="NaN" fill="#0038b8"/>
  <ellipse stroke="null" ry="44.606061" rx="45.89899" id="svg_10" cy="362.939393" cx="254.414141" fill-opacity="null" stroke-opacity="null" stroke-width="NaN" fill="#0038b8"/>
  <text stroke="null" transform="matrix(1.3305177688598633,0,0,1.094679594039917,-71.19151816132944,-22.38930556941341) " xml:space="preserve" text-anchor="start" font-family="Helvetica, Arial, sans-serif" font-size="24" id="svg_14" y="231.222222" x="215.393939" stroke-opacity="null" stroke-width="0" fill="#0038b8">Israel</text>
 </g>
</svg>