<svg viewBox="0 0 512 512" xml:space="preserve" xmlns="http://www.w3.org/2000/svg" enable-background="new 0 0 512 512"><path d="M216.4 418.4c0 21.9 17.7 39.6 39.6 39.6s39.6-17.7 39.6-39.6v-2.5h-79.2v2.5zM365.4 163.4c0-30.2-12.3-57.6-32-77.4-19.8-19.8-47.2-32-77.4-32-60.4 0-109.4 49-109.4 109.4v9.3h218.8v-9.3zM219 152.5c-11.2 0-20.2-9-20.2-20.2s9-20.2 20.2-20.2 20.2 9 20.2 20.2-9.1 20.2-20.2 20.2zm74 0c-11.2 0-20.2-9-20.2-20.2s9-20.2 20.2-20.2 20.2 9 20.2 20.2c.1 11.2-9 20.2-20.2 20.2z" fill="#ffffff" class="fill-3b4652"></path><path d="M146.6 339.8c0 34.3 27.8 62.1 62.1 62.1h94.6c34.3 0 62.1-27.8 62.1-62.1v-153H146.6v153zm68.2-97.4h82.5v60.7c0 22.8-18.5 41.2-41.2 41.2s-41.2-18.5-41.2-41.2v-60.7z" fill="#3a3e42" class="fill-2b79c2"></path><path d="M107 239.1v19.4c-22.2 0-40.3-18.1-40.3-40.3v-43c12-2.9 21.2-13.2 22.5-25.7l15.4-15.4c1.3-1.3 2.1-3.1 2.1-4.9v-26.7c0-3.9-3.1-7-7-7s-7 3.1-7 7v23.8l-6.6 6.6c-4.9-9.5-14.9-16-26.3-16s-21.4 6.5-26.3 16l-6.6-6.6v-23.8c0-3.9-3.1-7-7-7s-7 3.1-7 7v26.7c0 1.9.7 3.6 2 4.9l15.4 15.4c1.3 12.6 10.5 22.8 22.5 25.7v43c0 29.9 24.4 54.3 54.3 54.3v24.2c0 8.7 7 15.8 15.8 15.8h9.8v-89.1h-9.8c-8.9 0-15.9 7-15.9 15.7zM492.3 95.5c-3.9 0-7 3.1-7 7v23.8l-6.6 6.6c-4.9-9.5-14.9-16-26.3-16s-21.4 6.5-26.3 16l-6.6-6.6v-23.8c0-3.9-3.1-7-7-7s-7 3.1-7 7v26.7c0 1.9.7 3.6 2.1 4.9l15.4 15.4c1.3 12.6 10.5 22.8 22.5 25.7v43c0 22.2-18.1 40.3-40.3 40.3v-19.4c0-8.7-7-15.8-15.8-15.8h-9.8v89.1h9.8c8.7 0 15.8-7.1 15.8-15.8v-24.2c29.9 0 54.3-24.4 54.3-54.3v-43c12-2.9 21.2-13.2 22.5-25.7l15.4-15.4c1.3-1.3 2-3.1 2-4.9v-26.7c-.1-3.8-3.3-6.9-7.1-6.9z" fill="#ffffff" class="fill-3b4652"></path></svg>